REM DIRINDEX 1\6,1\2\7,1\2\8,1\2\9,1\3\10,1\3\11,1\4\12,1\4\13,1\4\14,1\5\15,1\5\16,1\5\17
REM DIRNAME folder01,folder02,folder03,folder04,folder05,folder06,folder07,folder08,folder09,folder10,folder11,folder12,folder13,folder14,folder15,folder16,folder17
TITLE ""
FILE "P2Q_t_0409-0426.mp3" MP3
  TRACK 01 AUDIO
    TITLE "10:cjc040_2469"
    INDEX 01 00:00:00
  TRACK 02 AUDIO
    TITLE "0:"
    INDEX 01 00:01:07
  TRACK 03 AUDIO
    TITLE "11:cjc040_2470"
    INDEX 01 00:01:64
  TRACK 04 AUDIO
    TITLE "0:"
    INDEX 01 00:03:04
  TRACK 05 AUDIO
    TITLE "10:cjc040_2471"
    INDEX 01 00:03:61
  TRACK 06 AUDIO
    TITLE "0:"
    INDEX 01 00:04:74
  TRACK 07 AUDIO
    TITLE "11:cjc040_2472"
    INDEX 01 00:05:56
  TRACK 08 AUDIO
    TITLE "0:"
    INDEX 01 00:07:25
  TRACK 09 AUDIO
    TITLE "10:cjc040_2473"
    INDEX 01 00:08:05
  TRACK 10 AUDIO
    TITLE "0:"
    INDEX 01 00:09:14
  TRACK 11 AUDIO
    TITLE "11:cjc040_2474"
    INDEX 01 00:09:67
  TRACK 12 AUDIO
    TITLE "0:"
    INDEX 01 00:13:04
  TRACK 13 AUDIO
    TITLE "10:cjc040_2475"
    INDEX 01 00:13:59
  TRACK 14 AUDIO
    TITLE "0:"
    INDEX 01 00:14:68
  TRACK 15 AUDIO
    TITLE "11:cjc040_2476"
    INDEX 01 00:15:50
  TRACK 16 AUDIO
    TITLE "0:"
    INDEX 01 00:17:00
  TRACK 17 AUDIO
    TITLE "10:cjc040_2477"
    INDEX 01 00:17:51
  TRACK 18 AUDIO
    TITLE "0:"
    INDEX 01 00:18:66
  TRACK 19 AUDIO
    TITLE "11:cjc040_2478"
    INDEX 01 00:19:48
  TRACK 20 AUDIO
    TITLE "0:"
    INDEX 01 00:22:44
  TRACK 21 AUDIO
    TITLE "10:cjc040_2479"
    INDEX 01 00:23:22
  TRACK 22 AUDIO
    TITLE "0:"
    INDEX 01 00:24:43
  TRACK 23 AUDIO
    TITLE "11:cjc040_2480"
    INDEX 01 00:25:19
  TRACK 24 AUDIO
    TITLE "0:"
    INDEX 01 00:28:12
  TRACK 25 AUDIO
    TITLE "10:cjc040_2481"
    INDEX 01 00:28:66
  TRACK 26 AUDIO
    TITLE "0:"
    INDEX 01 00:29:72
  TRACK 27 AUDIO
    TITLE "11:cjc040_2482"
    INDEX 01 00:30:57
  TRACK 28 AUDIO
    TITLE "0:"
    INDEX 01 00:32:25
  TRACK 29 AUDIO
    TITLE "10:cjc040_2483"
    INDEX 01 00:33:07
  TRACK 30 AUDIO
    TITLE "0:"
    INDEX 01 00:34:22
  TRACK 31 AUDIO
    TITLE "11:cjc040_2484"
    INDEX 01 00:35:02
  TRACK 32 AUDIO
    TITLE "0:"
    INDEX 01 00:38:18
  TRACK 33 AUDIO
    TITLE "10:cjc040_2485"
    INDEX 01 00:39:00
  TRACK 34 AUDIO
    TITLE "0:"
    INDEX 01 00:40:21
  TRACK 35 AUDIO
    TITLE "11:cjc040_2486"
    INDEX 01 00:40:73
  TRACK 36 AUDIO
    TITLE "0:"
    INDEX 01 00:42:51
  TRACK 37 AUDIO
    TITLE "10:cjc040_2487"
    INDEX 01 00:43:29
  TRACK 38 AUDIO
    TITLE "0:"
    INDEX 01 00:44:32
  TRACK 39 AUDIO
    TITLE "11:cjc040_2488"
    INDEX 01 00:45:14
  TRACK 40 AUDIO
    TITLE "0:"
    INDEX 01 00:47:54
  TRACK 41 AUDIO
    TITLE "10:cjc040_2489"
    INDEX 01 00:48:34
  TRACK 42 AUDIO
    TITLE "0:"
    INDEX 01 00:49:45
  TRACK 43 AUDIO
    TITLE "11:cjc040_2490"
    INDEX 01 00:50:23
  TRACK 44 AUDIO
    TITLE "0:"
    INDEX 01 00:54:52
  TRACK 45 AUDIO
    TITLE "10:cjc040_2491"
    INDEX 01 00:55:30
  TRACK 46 AUDIO
    TITLE "0:"
    INDEX 01 00:56:55
  TRACK 47 AUDIO
    TITLE "11:cjc040_2492"
    INDEX 01 00:57:35
  TRACK 48 AUDIO
    TITLE "0:"
    INDEX 01 00:58:67
  TRACK 49 AUDIO
    TITLE "10:cjc040_2493"
    INDEX 01 00:59:41
  TRACK 50 AUDIO
    TITLE "0:"
    INDEX 01 01:00:41
  TRACK 51 AUDIO
    TITLE "11:cjc040_2494"
    INDEX 01 01:01:23
  TRACK 52 AUDIO
    TITLE "0:"
    INDEX 01 01:02:55
  TRACK 53 AUDIO
    TITLE "10:cjc040_2495"
    INDEX 01 01:03:31
  TRACK 54 AUDIO
    TITLE "0:"
    INDEX 01 01:04:56
  TRACK 55 AUDIO
    TITLE "11:cjc040_2496"
    INDEX 01 01:05:36
  TRACK 56 AUDIO
    TITLE "0:"
    INDEX 01 01:06:49
  TRACK 57 AUDIO
    TITLE "10:cjc040_2497"
    INDEX 01 01:07:25
  TRACK 58 AUDIO
    TITLE "0:"
    INDEX 01 01:08:60
  TRACK 59 AUDIO
    TITLE "11:cjc040_2498"
    INDEX 01 01:09:38
  TRACK 60 AUDIO
    TITLE "0:"
    INDEX 01 01:12:44
  TRACK 61 AUDIO
    TITLE "10:cjc040_2499"
    INDEX 01 01:13:22
  TRACK 62 AUDIO
    TITLE "0:"
    INDEX 01 01:14:43
  TRACK 63 AUDIO
    TITLE "11:cjc040_2500"
    INDEX 01 01:15:25
  TRACK 64 AUDIO
    TITLE "0:"
    INDEX 01 01:16:56
  TRACK 65 AUDIO
    TITLE "10:cjc040_2501"
    INDEX 01 01:17:30
  TRACK 66 AUDIO
    TITLE "0:"
    INDEX 01 01:18:29
  TRACK 67 AUDIO
    TITLE "11:cjc040_2502"
    INDEX 01 01:19:13
  TRACK 68 AUDIO
    TITLE "0:"
    INDEX 01 01:20:16
  TRACK 69 AUDIO
    TITLE "10:cjc040_2503"
    INDEX 01 01:20:71
  TRACK 70 AUDIO
    TITLE "0:"
    INDEX 01 01:22:19
  TRACK 71 AUDIO
    TITLE "11:cjc040_2504"
    INDEX 01 01:23:01
  TRACK 72 AUDIO
    TITLE "0:"
    INDEX 01 01:24:39
